<svg width="50" height="45" viewBox="0 0 50 45" fill="none" xmlns="http://www.w3.org/2000/svg">
<circle cx="9.84252" cy="9.84252" r="7.87402" fill="#D9D9D9"/>
<path d="M8.38051 19.5759C6.57701 19.305 4.88425 18.5383 3.49106 17.3614C2.09787 16.1846 1.05906 14.6438 0.490511 12.9109C-0.0780367 11.1781 -0.153958 9.32136 0.271217 7.54788C0.696392 5.77441 1.60594 4.15394 2.89839 2.86726C4.19085 1.58057 5.81537 0.678282 7.59073 0.261046C9.36609 -0.15619 11.2225 -0.0719619 12.9527 0.504333C14.683 1.08063 16.2192 2.12633 17.3898 3.52476C18.5604 4.9232 19.3195 6.61938 19.5823 8.42407L17.6343 8.70776C17.4241 7.26401 16.8168 5.90707 15.8803 4.78831C14.9438 3.66956 13.7149 2.83301 12.3307 2.37197C10.9465 1.91093 9.46137 1.84355 8.04109 2.17734C6.6208 2.51113 5.32118 3.23296 4.28722 4.26231C3.25326 5.29165 2.52562 6.58803 2.18548 8.00681C1.84534 9.42559 1.90607 10.911 2.36091 12.2972C2.81575 13.6835 3.6468 14.9162 4.76135 15.8577C5.8759 16.7991 7.23011 17.4125 8.67291 17.6292L8.38051 19.5759Z" fill="#333646"/>
<path d="M4.56573 11.811C4.2185 11.811 3.9344 11.5291 3.9621 11.183C4.02763 10.3641 4.22102 9.55914 4.53639 8.79777C4.93209 7.84245 5.51209 6.97442 6.24326 6.24325C6.97443 5.51208 7.84246 4.93209 8.79778 4.53638C9.55915 4.22101 10.3641 4.02762 11.183 3.9621C11.5291 3.9344 11.811 4.2185 11.811 4.56573V4.56573C11.811 4.91297 11.5289 5.19136 11.1833 5.2243C10.5296 5.2866 9.88774 5.44595 9.27898 5.69811C8.47622 6.03062 7.74681 6.518 7.13241 7.1324C6.518 7.74681 6.03063 8.47621 5.69811 9.27897C5.44596 9.88773 5.2866 10.5296 5.2243 11.1832C5.19136 11.5289 4.91297 11.811 4.56573 11.811V11.811Z" fill="#333646"/>
<circle cx="40.1575" cy="9.84252" r="7.87402" fill="#D9D9D9"/>
<path d="M30.4525 8.20275C30.752 6.43028 31.5311 4.77367 32.7055 3.41267C33.8798 2.05167 35.4044 1.03826 37.1139 0.482393C38.8234 -0.0734689 40.6525 -0.150553 42.4027 0.259505C44.1529 0.669562 45.7574 1.5511 47.042 2.80847C48.3267 4.06584 49.2425 5.65102 49.69 7.39201C50.1376 9.133 50.0998 10.9633 49.5808 12.6844C49.0618 14.4054 48.0813 15.9514 46.7459 17.1547C45.4104 18.358 43.7709 19.1726 42.0053 19.51L41.6357 17.5765C43.0482 17.3065 44.3598 16.6549 45.4282 15.6923C46.4966 14.7296 47.2809 13.4928 47.6961 12.116C48.1113 10.7392 48.1416 9.27491 47.7835 7.88211C47.4255 6.48932 46.6929 5.22118 45.6651 4.21528C44.6374 3.20939 43.3538 2.50415 41.9536 2.17611C40.5535 1.84806 39.0902 1.90973 37.7226 2.35442C36.355 2.79911 35.1353 3.60984 34.1959 4.69864C33.2564 5.78744 32.6331 7.11273 32.3935 8.53071L30.4525 8.20275Z" fill="#333646"/>
<path d="M38.189 4.56573C38.189 4.2185 38.4709 3.9344 38.8171 3.96208C40.6755 4.11073 42.4288 4.91536 43.7567 6.24325C45.0846 7.57115 45.8893 9.3245 46.0379 11.1829C46.0656 11.529 45.7815 11.811 45.4343 11.811V11.811C45.087 11.811 44.8086 11.5289 44.7757 11.1832C44.6304 9.65876 43.9596 8.22439 42.8676 7.1324C41.7756 6.04041 40.3412 5.36954 38.8168 5.22429C38.4711 5.19135 38.189 4.91297 38.189 4.56573V4.56573Z" fill="#333646"/>
<circle cx="25.1968" cy="25.1968" r="17.7165" fill="#D9D9D9"/>
<path d="M44.882 25.1968C44.882 36.0685 36.0687 44.8818 25.197 44.8818C14.3253 44.8818 5.51196 36.0685 5.51196 25.1968C5.51196 14.325 14.3253 5.51172 25.197 5.51172C36.0687 5.51172 44.882 14.325 44.882 25.1968ZM7.48047 25.1968C7.48047 34.9813 15.4124 42.9133 25.197 42.9133C34.9816 42.9133 42.9135 34.9813 42.9135 25.1968C42.9135 15.4122 34.9816 7.48022 25.197 7.48022C15.4124 7.48022 7.48047 15.4122 7.48047 25.1968Z" fill="#333646"/>
<rect x="21.26" y="18.5042" width="7.48031" height="13.3858" rx="3.74016" fill="#333646"/>
<circle cx="16.5355" cy="18.5041" r="1.9685" fill="#333646"/>
<circle cx="33.4647" cy="18.5041" r="1.9685" fill="#333646"/>
<path d="M30.3202 33.8634C30.5657 34.109 30.5673 34.5092 30.3029 34.7344C29.6776 35.2671 28.9716 35.6995 28.2103 36.0149C27.2549 36.4106 26.231 36.6142 25.197 36.6142C24.163 36.6142 23.1391 36.4106 22.1838 36.0149C21.4224 35.6995 20.7165 35.2671 20.0911 34.7344C19.8268 34.5092 19.8283 34.109 20.0738 33.8634V33.8634C20.3193 33.6179 20.7157 33.6205 20.9834 33.8417C21.4896 34.2598 22.0562 34.601 22.665 34.8531C23.4677 35.1857 24.3281 35.3568 25.197 35.3568C26.0659 35.3568 26.9263 35.1857 27.7291 34.8531C28.3378 34.601 28.9044 34.2598 29.4106 33.8417C29.6783 33.6205 30.0747 33.6179 30.3202 33.8634V33.8634Z" fill="#333646"/>
</svg>
